<svg width="59" height="60" viewBox="0 0 59 60" fill="none" xmlns="http://www.w3.org/2000/svg">
<path d="M11.0625 14.5352H44.25V16.3789H11.0625V14.5352Z" fill="black"/>
<path d="M9.21875 18.2227V16.3789H11.0625V18.2227H9.21875Z" fill="black"/>
<path d="M7.375 20.0664V18.2227H9.21875V20.0664H7.375Z" fill="black"/>
<path d="M5.53125 21.9102V20.0664H7.375V21.9102H5.53125Z" fill="black"/>
<path d="M3.6875 23.7539V21.9102H5.53125V23.7539H3.6875Z" fill="black"/>
<path d="M1.84375 25.5977V23.7539H3.6875V25.5977H1.84375Z" fill="black"/>
<path d="M7.375 32.9727H11.0625V38.5039H7.375V32.9727Z" fill="black"/>
<path fill-rule="evenodd" clip-rule="evenodd" d="M53.4688 25.5977H55.3125V31.1289H57.1562V34.8164H59V45.8789H1.84375V44.0352H0V25.5977H1.84375V29.2852H53.4688V25.5977ZM1.84375 42.1914H53.4688V31.1289H1.84375V42.1914Z" fill="black"/>
<path d="M51.625 23.7539H53.4688V25.5977H51.625V23.7539Z" fill="black"/>
<path d="M49.7812 21.9102H51.625V23.7539H49.7812V21.9102Z" fill="black"/>
<path d="M47.9375 20.0664H49.7812V21.9102H47.9375V20.0664Z" fill="black"/>
<path d="M46.0938 18.2227H47.9375V20.0664H46.0938V18.2227Z" fill="black"/>
<path d="M46.0938 18.2227V16.3789H44.25V18.2227H46.0938Z" fill="black"/>
<path d="M11.0625 16.3789V18.2227H9.21875V20.0664H7.375V21.9102H5.53125V23.7539H3.6875V25.5977H1.84375V29.2852H53.4688V25.5977H51.625V23.7539H49.7812V21.9102H47.9375V20.0664H46.0938V18.2227H44.25V16.3789H11.0625Z" fill="#7FFF5B"/>
<path fill-rule="evenodd" clip-rule="evenodd" d="M1.84375 31.1289H53.4688V42.1914H1.84375V31.1289ZM11.0625 38.5039H7.375V32.9727H11.0625V38.5039Z" fill="#7FFF5B"/>
</svg>
