<svg width="55" height="56" viewBox="0 0 55 56" fill="none" xmlns="http://www.w3.org/2000/svg">
<g clip-path="url(#clip0_22_16)">
<path fill-rule="evenodd" clip-rule="evenodd" d="M5.12109 2.60156V6.01562H1.70703V36.7422H3.41406V38.4492H6.82812V40.1562H10.2422V41.8633H13.6562V43.5703H17.0703V45.2773H20.4844V46.9844H23.8984V48.6914H27.3125V50.3984H30.7266V52.1055H34.1406V53.8125H37.5547V23.0859H39.2617V53.8125H40.9688V16.2578H39.2617V14.5508H37.5547V12.8438H34.1406V11.1367H30.7266V9.42969H23.8984V11.1367H22.1914V9.42969H20.4844V7.72266H18.7773V6.01562H15.3633V4.30859H11.9492V2.60156H5.12109ZM35.8477 21.3789H37.5547V23.0859H35.8477V21.3789ZM32.4336 19.6719H35.8477V21.3789H32.4336V19.6719ZM29.0195 17.9648H32.4336V19.6719H29.0195V17.9648ZM25.6055 16.2578H29.0195V17.9648H25.6055V16.2578ZM22.1914 14.5508H25.6055V16.2578H22.1914V14.5508ZM18.7773 12.8438H22.1914V14.5508H18.7773V12.8438ZM15.3633 11.1367H18.7773V12.8438H15.3633V11.1367ZM11.9492 9.42969H15.3633V11.1367H11.9492V9.42969ZM8.53516 7.72266H11.9492V9.42969H8.53516V7.72266ZM8.53516 7.72266V6.01562H5.12109V7.72266H8.53516Z" fill="#FFFF50"/>
<g clip-path="url(#clip1_22_16)">
<path d="M22.6934 28.6338L22.6934 26.9268L23.4325 27.3535L23.4325 23.9395L21.9542 23.0859L21.9542 24.793L21.215 24.3662L21.215 27.7803L17.5192 25.6465L17.5192 23.9395L18.2584 24.3662L18.2584 20.9521L16.78 20.0986L16.78 21.8057L16.0409 21.3789L16.0409 24.793L10.8667 21.8057L10.8667 23.5127L15.3017 26.0732L15.3017 26.9268L14.5625 26.5L14.5625 29.0605L10.8667 26.9268L10.8667 28.6338L13.8234 30.3408L13.8234 32.0479L13.0842 31.6211L13.0842 35.0352L14.5625 35.8887L14.5625 35.0352L14.5625 34.1816L15.3017 34.6084L15.3017 31.1943L18.9975 33.3281L18.9975 34.1816L18.9975 35.0352L18.2584 34.6084L18.2584 38.0225L19.7367 38.876L19.7367 37.1689L20.4759 37.5957L20.4759 34.1816L25.65 37.1689L25.65 35.4619L21.215 32.9014L21.215 32.0479L21.9542 32.4746L21.9542 29.9141L25.65 32.0479L25.65 30.3408L22.6934 28.6338ZM20.4759 29.9141L19.7367 29.4873L19.7367 32.0479L16.0409 29.9141L16.0409 29.0605L16.78 29.4873L16.78 26.9268L20.4759 29.0605L20.4759 29.9141Z" fill="black"/>
</g>
<path d="M3.41406 0.894531H11.9492V2.60156H5.12109V6.01562H1.70703V36.7422H3.41406V38.4492H0V4.30859H3.41406V0.894531Z" fill="black"/>
<path d="M6.82812 40.1562V38.4492H3.41406V40.1562H6.82812Z" fill="black"/>
<path d="M10.2422 41.8633V40.1562H6.82812V41.8633H10.2422Z" fill="black"/>
<path d="M13.6562 43.5703V41.8633H10.2422V43.5703H13.6562Z" fill="black"/>
<path d="M17.0703 45.2773V43.5703H13.6562V45.2773H17.0703Z" fill="black"/>
<path d="M20.4844 46.9844V45.2773H17.0703V46.9844H20.4844Z" fill="black"/>
<path d="M23.8984 48.6914V46.9844H20.4844V48.6914H23.8984Z" fill="black"/>
<path d="M27.3125 50.3984V48.6914H23.8984V50.3984H27.3125Z" fill="black"/>
<path d="M30.7266 52.1055V50.3984H27.3125V52.1055H30.7266Z" fill="black"/>
<path d="M34.1406 53.8125V52.1055H30.7266V53.8125H34.1406Z" fill="black"/>
<path d="M37.5547 23.0859V53.8125H34.1406V55.5195H46.0898V53.8125H47.7969V52.1055H49.5039V50.3984H51.2109V48.6914H52.918V46.9844H54.625V38.4492H51.2109V36.7422H47.7969V35.0352H42.6758V16.2578H40.9688V14.5508H39.2617V12.8438H37.5547V11.1367H34.1406V9.42969H30.7266V7.72266H23.8984V9.42969H22.1914V7.72266H20.4844V6.01562H18.7773V4.30859H15.3633V2.60156H11.9492V4.30859H15.3633V6.01562H18.7773V7.72266H20.4844V9.42969H22.1914V11.1367H23.8984V9.42969H30.7266V11.1367H34.1406V12.8438H37.5547V14.5508H39.2617V16.2578H40.9688V53.8125H39.2617V23.0859H37.5547Z" fill="black"/>
<path d="M35.8477 21.3789V23.0859H37.5547V21.3789H35.8477Z" fill="black"/>
<path d="M32.4336 19.6719H35.8477V21.3789H32.4336V19.6719Z" fill="black"/>
<path d="M29.0195 17.9648H32.4336V19.6719H29.0195V17.9648Z" fill="black"/>
<path d="M25.6055 16.2578H29.0195V17.9648H25.6055V16.2578Z" fill="black"/>
<path d="M22.1914 14.5508H25.6055V16.2578H22.1914V14.5508Z" fill="black"/>
<path d="M18.7773 12.8438H22.1914V14.5508H18.7773V12.8438Z" fill="black"/>
<path d="M15.3633 11.1367H18.7773V12.8438H15.3633V11.1367Z" fill="black"/>
<path d="M11.9492 9.42969H15.3633V11.1367H11.9492V9.42969Z" fill="black"/>
<path d="M8.53516 7.72266H11.9492V9.42969H8.53516V7.72266Z" fill="black"/>
<path d="M8.53516 7.72266V6.01562H5.12109V7.72266H8.53516Z" fill="black"/>
</g>
<defs>
<clipPath id="clip0_22_16">
<rect width="54.625" height="54.625" fill="white" transform="translate(0 0.894531)"/>
</clipPath>
<clipPath id="clip1_22_16">
<rect width="20.4844" height="20.4844" fill="white" transform="matrix(0.866025 0.5 -2.20305e-08 1 9.38867 14.124)"/>
</clipPath>
</defs>
</svg>
