<svg width="24" height="23" viewBox="0 0 24 23" fill="none" xmlns="http://www.w3.org/2000/svg">
<path fill-rule="evenodd" clip-rule="evenodd" d="M20.2968 3.04454V3.97629H21.2286V18.8843H20.2968V19.8161H19.3651V20.7478H4.45701V19.8161H3.52526V18.8843H2.59351V3.97629H3.52526V3.04454H4.45701V2.11279H19.3651V3.04454H20.2968ZM18.4333 17.0208H19.3651V5.8398H18.4333V4.90804H17.5016V3.97629H6.32052V4.90804H5.38876V5.8398H4.45701V17.0208H5.38876V17.9526H6.32052V18.8843H17.5016V17.9526H18.4333V17.0208ZM12.8426 7.7033V10.4986H15.6379V12.3621H12.8426V15.1573H10.9791V12.3621H8.18386V10.4986H10.9791V7.7033H12.8426Z" fill="white"/>
</svg>
