<svg width="57" height="16" viewBox="0 0 57 16" fill="none" xmlns="http://www.w3.org/2000/svg">
<path d="M1.9082 8.43031C1.9082 4.82816 4.82832 1.90804 8.43047 1.90804C12.0326 1.90804 14.9527 4.82816 14.9527 8.43031C14.9527 12.0325 12.0326 14.9526 8.43047 14.9526C4.82832 14.9526 1.9082 12.0325 1.9082 8.43031Z" stroke="white" stroke-width="1.86351"/>
<path d="M22.4067 8.43031C22.4067 4.82816 25.3269 1.90804 28.929 1.90804C32.5312 1.90804 35.4513 4.82816 35.4513 8.43031C35.4513 12.0325 32.5312 14.9526 28.929 14.9526C25.3269 14.9526 22.4067 12.0325 22.4067 8.43031Z" stroke="white" stroke-width="1.86351"/>
<path d="M42.9053 8.43031C42.9053 4.82816 45.8254 1.90804 49.4275 1.90804C53.0297 1.90804 55.9498 4.82816 55.9498 8.43031C55.9498 12.0325 53.0297 14.9526 49.4275 14.9526C45.8254 14.9526 42.9053 12.0325 42.9053 8.43031Z" stroke="white" stroke-width="1.86351"/>
</svg>
